<svg xmlns="http://www.w3.org/2000/svg" xmlns:xlink="http://www.w3.org/1999/xlink" viewBox="0 0 606.46 613.78"><defs><style>.cls-1{fill:#f5f5f5;}.cls-2,.cls-3{fill:#fff;}.cls-3{opacity:0.1;}.cls-4{fill:url(#linear-gradient);}.cls-5{fill:url(#linear-gradient-2);}.cls-6{fill:#d36658;}.cls-7{fill:url(#linear-gradient-3);}.cls-8{fill:url(#linear-gradient-4);}.cls-9{fill:url(#linear-gradient-5);}.cls-10{fill:url(#linear-gradient-6);}.cls-11{fill:url(#linear-gradient-7);}.cls-12{fill:url(#linear-gradient-8);}.cls-13{fill:url(#linear-gradient-9);}.cls-14{fill:url(#linear-gradient-10);}.cls-15{fill:url(#linear-gradient-11);}.cls-16{fill:url(#linear-gradient-12);}.cls-17{fill:url(#linear-gradient-13);}.cls-18{fill:#b5682e;}.cls-19{fill:url(#linear-gradient-14);}.cls-20{fill:url(#linear-gradient-15);}.cls-21{fill:url(#linear-gradient-16);}.cls-22{fill:url(#linear-gradient-17);}.cls-23{fill:url(#linear-gradient-18);}.cls-24{fill:url(#linear-gradient-19);}.cls-25{fill:url(#linear-gradient-20);}.cls-26{fill:url(#linear-gradient-21);}.cls-27{fill:url(#linear-gradient-22);}.cls-28{fill:url(#linear-gradient-23);}.cls-29{fill:url(#linear-gradient-24);}.cls-30{fill:url(#linear-gradient-25);}.cls-31{fill:url(#linear-gradient-26);}.cls-32{fill:#fa3c00;}.cls-33{fill:#f13a00;}.cls-34{fill:#74ba40;}.cls-35{fill:none;}.cls-36{fill:#2062af;}.cls-37{fill:#3c9cd7;}.cls-38{fill:url(#linear-gradient-27);}.cls-39{fill:url(#linear-gradient-28);}.cls-40{fill:url(#linear-gradient-29);}.cls-41{opacity:0.05;isolation:isolate;}.cls-42{fill:url(#linear-gradient-30);}.cls-43{fill:#e44d26;}.cls-44{fill:#f16529;}.cls-45{fill:#ebebeb;}.cls-46{fill:#f7df1e;}</style><linearGradient id="linear-gradient" x1="527.44" y1="217.01" x2="545.72" y2="217.01" gradientUnits="userSpaceOnUse"><stop offset="0" stop-color="#f9904a"/><stop offset="1" stop-color="#f6653a"/></linearGradient><linearGradient id="linear-gradient-2" x1="289.27" y1="269.86" x2="281.85" y2="372.34" gradientTransform="translate(-7.42 8.44) rotate(-1.57)" gradientUnits="userSpaceOnUse"><stop offset="0" stop-color="#bdccd4"/><stop offset="1" stop-color="#e9eaf0"/></linearGradient><linearGradient id="linear-gradient-3" x1="295.2" y1="346.27" x2="296.49" y2="242.68" gradientTransform="translate(579.85 -8.49) rotate(90)" gradientUnits="userSpaceOnUse"><stop offset="0" stop-color="#ffd3c5"/><stop offset="1" stop-color="#ff7e86"/></linearGradient><linearGradient id="linear-gradient-4" x1="427.26" y1="153.85" x2="484.66" y2="222.91" gradientTransform="translate(-7.42 8.44) rotate(-1.57)" xlink:href="#linear-gradient-3"/><linearGradient id="linear-gradient-5" x1="273.65" y1="562.63" x2="271.1" y2="384.03" gradientTransform="translate(-7.42 8.44) rotate(-1.57)" gradientUnits="userSpaceOnUse"><stop offset="0" stop-color="#c9ccdb"/><stop offset="1" stop-color="#fff"/></linearGradient><linearGradient id="linear-gradient-6" x1="68.75" y1="398.75" x2="168.45" y2="398.75" gradientTransform="translate(-7.42 8.44) rotate(-1.57)" gradientUnits="userSpaceOnUse"><stop offset="0.17" stop-color="#b25b32"/><stop offset="1" stop-color="#ba6e2e"/></linearGradient><linearGradient id="linear-gradient-7" x1="173.33" y1="395.18" x2="339.84" y2="395.18" gradientTransform="translate(3.31 1.27)" xlink:href="#linear-gradient"/><linearGradient id="linear-gradient-8" x1="398.14" y1="138.68" x2="446.21" y2="138.68" gradientTransform="translate(167.01 -230.86) rotate(37.31)" xlink:href="#linear-gradient-6"/><linearGradient id="linear-gradient-9" x1="351.9" y1="87.65" x2="412.74" y2="87.65" xlink:href="#linear-gradient-6"/><linearGradient id="linear-gradient-10" x1="101.68" y1="395.18" x2="162.09" y2="395.18" gradientTransform="translate(-7.42 8.44) rotate(-1.57)" xlink:href="#linear-gradient-3"/><linearGradient id="linear-gradient-11" x1="293.51" y1="253.92" x2="293.51" y2="94.22" gradientTransform="translate(2.89 -10.11) rotate(1.61)" xlink:href="#linear-gradient-3"/><linearGradient id="linear-gradient-12" x1="292.76" y1="93.19" x2="292.76" y2="148.82" gradientTransform="translate(2.89 -10.11) rotate(1.61)" gradientUnits="userSpaceOnUse"><stop offset="0" stop-color="#c9ccdb"/><stop offset="1" stop-color="#e9eaf0"/></linearGradient><linearGradient id="linear-gradient-13" x1="291.5" y1="15.82" x2="291.5" y2="56.1" xlink:href="#linear-gradient-12"/><linearGradient id="linear-gradient-14" x1="80.73" y1="447.47" x2="95.05" y2="473.73" gradientUnits="userSpaceOnUse"><stop offset="0" stop-color="#fefaf5"/><stop offset="1" stop-color="#f6653a"/></linearGradient><linearGradient id="linear-gradient-15" x1="89.18" y1="461.72" x2="105.36" y2="493.76" xlink:href="#linear-gradient-14"/><linearGradient id="linear-gradient-16" x1="59.48" y1="511.53" x2="58.18" y2="435.23" xlink:href="#linear-gradient"/><linearGradient id="linear-gradient-17" x1="526.07" y1="547.32" x2="366.03" y2="547.32" gradientTransform="matrix(1, 0, 0, 1, 0, 0)" xlink:href="#linear-gradient-6"/><linearGradient id="linear-gradient-18" x1="458.87" y1="484.42" x2="458.87" y2="506.56" gradientTransform="matrix(1, 0, 0, 1, 0, 0)" xlink:href="#linear-gradient-6"/><linearGradient id="linear-gradient-19" x1="112.49" y1="608.54" x2="112.49" y2="549.66" gradientTransform="matrix(1, 0, 0, 1, 0, 0)" xlink:href="#linear-gradient-6"/><linearGradient id="linear-gradient-20" x1="99.28" y1="500.04" x2="99.28" y2="490.76" gradientTransform="matrix(1, 0, 0, 1, 0, 0)" xlink:href="#linear-gradient-6"/><linearGradient id="linear-gradient-21" x1="276.67" y1="527.84" x2="276.67" y2="600.65" gradientTransform="matrix(1, 0, 0, 1, 0, 0)" xlink:href="#linear-gradient-6"/><linearGradient id="linear-gradient-22" x1="276.67" y1="479.95" x2="276.67" y2="490.2" gradientUnits="userSpaceOnUse"><stop offset="0.18" stop-color="#b25b32"/><stop offset="0.2" stop-color="#b25b32"/><stop offset="0.41" stop-color="#b25b32"/><stop offset="0.62" stop-color="#ba6e2e"/></linearGradient><linearGradient id="linear-gradient-23" x1="478.78" y1="492.25" x2="509.27" y2="492.25" gradientTransform="matrix(1, 0, 0, 1, 0, 0)" xlink:href="#linear-gradient-12"/><linearGradient id="linear-gradient-24" x1="493.82" y1="453.78" x2="493.82" y2="529.32" gradientTransform="matrix(1, 0, 0, 1, 0, 0)" xlink:href="#linear-gradient-12"/><linearGradient id="linear-gradient-25" x1="407.47" y1="488.49" x2="444.41" y2="488.49" gradientTransform="matrix(1, 0, 0, 1, 0, 0)" xlink:href="#linear-gradient-12"/><linearGradient id="linear-gradient-26" x1="425.69" y1="441.88" x2="425.69" y2="533.4" gradientTransform="matrix(1, 0, 0, 1, 0, 0)" xlink:href="#linear-gradient-12"/><linearGradient id="linear-gradient-27" x1="-1564.59" y1="-1134.8" x2="-1564.59" y2="-1136.55" gradientTransform="matrix(4.01, -2.36, 2.37, 4.03, 9531.8, 1053.79)" gradientUnits="userSpaceOnUse"><stop offset="0.39" stop-color="#d1d3d4" stop-opacity="0"/><stop offset="1" stop-color="#d1d3d4"/></linearGradient><linearGradient id="linear-gradient-28" x1="-1562.41" y1="-1135.67" x2="-1562.41" y2="-1137.49" xlink:href="#linear-gradient-27"/><linearGradient id="linear-gradient-29" x1="-1565.63" y1="-1134.02" x2="-1561.42" y2="-1134.02" gradientTransform="matrix(4.01, -2.36, 2.37, 4.03, 9531.8, 1053.79)" gradientUnits="userSpaceOnUse"><stop offset="0" stop-color="#e8e7e5"/><stop offset="1" stop-color="#fff"/></linearGradient><linearGradient id="linear-gradient-30" x1="-1565.72" y1="-1137.06" x2="-1561.38" y2="-1137.06" xlink:href="#linear-gradient-29"/></defs><title>KodeKoki</title><g id="Layer_2" data-name="Layer 2"><g id="Graphic_Element" data-name="Graphic Element"><path class="cls-1" d="M149.82,189.79c-3.71,9-13.19,17.14-22.39,14-4.86-1.63-8.23-5.91-11.85-9.54a56.05,56.05,0,0,0-15.67-11c-8.16-3.84-17.22-5.69-25-10.22S60.49,160,62.17,151.13a24.22,24.22,0,0,1,2.29-6.65A30.28,30.28,0,0,1,75.8,132.7c15.68-9.7,40.48-10,53-1.34A56.9,56.9,0,0,1,149.7,157a47,47,0,0,1,3.17,15.53A41.6,41.6,0,0,1,149.82,189.79Z"/><path class="cls-2" d="M152.87,172.56a40.53,40.53,0,0,1-3,14.17c-3.67,8.87-13,16.93-22.12,13.87-4.79-1.61-8.12-5.85-11.7-9.42a55.11,55.11,0,0,0-15.47-10.87c-8-3.79-17-5.61-24.69-10.1s-14.23-12.9-12.57-21.65a23.63,23.63,0,0,1,1.15-4.08A30.28,30.28,0,0,1,75.8,132.7c15.68-9.7,40.48-10,53-1.34A56.9,56.9,0,0,1,149.7,157,47,47,0,0,1,152.87,172.56Z"/><path class="cls-3" d="M91.34,140.11a4.89,4.89,0,0,0-1.61,3.82c.15,2.07,2.55,3.12,4.6,3.5a18.74,18.74,0,0,0,8.56-.14,10.76,10.76,0,0,0,6.67-5.12c2.66-5.12-5.27-6.73-8.72-6.25C98.31,136.27,93.77,137.67,91.34,140.11Z"/><path class="cls-1" d="M137,179.64l-.19-.18a1.91,1.91,0,0,0-2.7,2.69l.19.2a1.91,1.91,0,1,0,2.7-2.71Z"/><path class="cls-1" d="M140,185.25a1.74,1.74,0,0,0,0,3.48A1.74,1.74,0,0,0,140,185.25Z"/><path class="cls-1" d="M89.69,170.89a1.4,1.4,0,0,0-.47-.84,1.37,1.37,0,0,0-1.9,0,1.4,1.4,0,0,0-.47.84,1.47,1.47,0,0,0,2.46,1.43A1.55,1.55,0,0,0,89.69,170.89Z"/><path class="cls-1" d="M73.67,141.8a1.65,1.65,0,0,0-.19-.58,1.57,1.57,0,0,0-.34-1.09,1.73,1.73,0,0,0-2.2-.44,2.34,2.34,0,0,0-1.24,2.67,2.16,2.16,0,0,0,1.41,1.44,2.29,2.29,0,0,0,1.7-.21A1.78,1.78,0,0,0,73.67,141.8Z"/><path class="cls-1" d="M137.9,142.79a2,2,0,0,0-1.87-.5l-.28.05a1.88,1.88,0,0,0-1.37,1.81,1.9,1.9,0,0,0,1.37,1.81l.28,0a2,2,0,0,0,2.44-1.86A2,2,0,0,0,137.9,142.79Z"/><path class="cls-1" d="M140.82,147.26a.89.89,0,0,0,0,1.77A.89.89,0,0,0,140.82,147.26Z"/><path class="cls-4" d="M545.72,211.72l-5.39-5.58s-.91,13.34-12.89,18.07l4.95,3.67A24.32,24.32,0,0,0,545.72,211.72Z"/><path class="cls-5" d="M107.61,388.39s17.53-6.09,26.73-17.14c0,0-15.26-44.7,24.55-57.45,45-14.42,98.05,25.17,24.5,177.44l184.13-8.93s-43.84-63.57,17.9-102.82,131.79-83.28,82.23-190.08c0,0-20.15-2.68-32.15,8.65,0,0,27.24,95.76-65.41,94.41s-155.37-57.92-220.67-40.58C86.55,268.57,78.48,357.46,107.61,388.39Z"/><path class="cls-6" d="M195,406l-25.06.69a4.25,4.25,0,0,1-4.36-4.13h0a4.25,4.25,0,0,1,4.13-4.36l25.05-.69a4.25,4.25,0,0,1,4.36,4.13h0A4.23,4.23,0,0,1,195,406Z"/><ellipse class="cls-7" cx="290.54" cy="287.42" rx="25.03" ry="16.4" transform="translate(-4.95 569.75) rotate(-88.39)"/><path class="cls-8" d="M435.5,198.06s-17.82-12.46-15.79-20.94,6-17,12.7-21.07a16.46,16.46,0,0,0,3-10.55,4.12,4.12,0,0,1,5.51-4.2,45.93,45.93,0,0,1,17.92,12.08c11.68,12.64,14.87,19.67,8.76,36C461.46,206,435.5,198.06,435.5,198.06Z"/><path class="cls-9" d="M319.74,282.92l10.86,2.25S313.43,391,361,404.64c0,0,.25,46.2,14.63,81.33L181.24,491.3s29.68-64.76,35.65-92.29c0,0,46.9-15,37.61-133.45l13.9,3s3.2,38.2-5.15,95.85c17,5.06,50.8-5.65,50.8-5.65S313.24,310,319.74,282.92Z"/><path class="cls-10" d="M162.24,412.62l-79.82,2.19a9.92,9.92,0,0,1-10.19-9.65h0A9.93,9.93,0,0,1,81.88,395l79.82-2.18a9.92,9.92,0,0,1,10.19,9.65h0A9.92,9.92,0,0,1,162.24,412.62Z"/><path class="cls-11" d="M176.64,376.28H343.15a0,0,0,0,1,0,0v11.37a29,29,0,0,1-29,29H205.62a29,29,0,0,1-29-29V376.28A0,0,0,0,1,176.64,376.28Z" transform="translate(-10.76 7.27) rotate(-1.57)"/><path class="cls-12" d="M415.87,99.42h5.82a0,0,0,0,1,0,0v71a1.87,1.87,0,0,1-1.87,1.87h-2.08a1.87,1.87,0,0,1-1.87-1.87v-71a0,0,0,0,1,0,0Z" transform="translate(7.5 292.99) rotate(-38.88)"/><path class="cls-13" d="M403,81.49,380.63,53.75l-34,27.45L369,108.93a21.86,21.86,0,0,0,30.74,3.29h0A21.85,21.85,0,0,0,403,81.49ZM378.36,106.4l-.09.08a1.62,1.62,0,0,1-2.27-.24L358.7,84.79a1.67,1.67,0,0,1,2.61-2.1l17.29,21.45A1.61,1.61,0,0,1,378.36,106.4Zm14.26-3-.11.09a2,2,0,0,1-2.8-.3L368.42,76.81a2,2,0,0,1,.31-2.89h0a2.06,2.06,0,0,1,2.89.31l21.3,26.36A2,2,0,0,1,392.62,103.38Zm5-13.23-.09.08a1.61,1.61,0,0,1-2.27-.25L378,68.54a1.67,1.67,0,1,1,2.6-2.1l17.3,21.44A1.61,1.61,0,0,1,397.62,90.15Z"/><path class="cls-14" d="M107.61,388.39s19.11-19.3,31.79-17.71S164,383,165.27,393.29c0,0-5,5-11.19,5.16-.33,11.67,5,17.68-10,26.83S95.9,429.84,107.61,388.39Z"/><path class="cls-15" d="M369.94,196.82c-4.32-.58-10,4.25-14.4,8.92q.46-4.59.6-9.31c1.43-50.75-26.49-92.71-62.35-93.72S227.7,142,226.27,192.77q-.14,5.08.11,10c-4.9-6-10-9.62-18.91-3.28s-8.18,15.68-4.66,24.1c4.27,10.2,21.49,12,29.75,12.2,10.06,29.47,31.13,50,56.06,50.67s47.12-18.58,58.82-47.44c8.46.17,25.09-.79,29.81-10.51C383.67,215.34,378.12,197.91,369.94,196.82Z"/><path class="cls-16" d="M354.47,171.81l-127.7,3.28S224.85,90,296.14,19.44C342.85,24.21,354.47,171.81,354.47,171.81Z"/><path class="cls-17" d="M217.83,50.93c-1.54-9.48,7.62-20.73,22.45-27.91C261.4,12.8,293.88-.74,316.41,0c35.95,1.24,75.94,28.71,34.21,63.84S237.76,74,225.16,64.11A20.29,20.29,0,0,1,217.83,50.93Z"/><path class="cls-18" d="M84,452.92l.94-7.14,14.66-10.17a4.63,4.63,0,0,1,6.88,1.65h0a4.62,4.62,0,0,1-1.54,5.88L88,454.68Z"/><polygon class="cls-19" points="77.48 450.98 84.97 445.78 88.59 456.37 83.03 461.11 77.48 450.98"/><path class="cls-18" d="M93.88,469.93l1.2-6.68,14.39-10.63a4.62,4.62,0,0,1,6.88,1.65h0a4.61,4.61,0,0,1-1.54,5.88L97.87,471.69Z"/><polygon class="cls-20" points="87.24 468.04 95.08 463.25 98.47 473.49 92.85 478.28 87.24 468.04"/><polygon class="cls-21" points="18.59 487.78 74.93 444.97 99.57 488.7 18.59 487.78"/><path class="cls-22" d="M367.31,599.87A302.55,302.55,0,0,0,516.73,494.76H367.31Z"/><path class="cls-23" d="M369.5,486.83H548.24a9.9,9.9,0,0,1,9.9,9.9v9.21a0,0,0,0,1,0,0H359.6a0,0,0,0,1,0,0v-9.21A9.9,9.9,0,0,1,369.5,486.83Z"/><path class="cls-24" d="M189.91,601.16V493.26H35.08A302.41,302.41,0,0,0,189.91,601.16Z"/><path class="cls-25" d="M12.16,486.83H186.39A12.16,12.16,0,0,1,198.55,499v7a0,0,0,0,1,0,0H0a0,0,0,0,1,0,0v-7A12.16,12.16,0,0,1,12.16,486.83Z"/><path class="cls-26" d="M186,600a303.49,303.49,0,0,0,181.27-.12V494.76H186Z"/><path class="cls-27" d="M187.52,480.51h178.3a10.12,10.12,0,0,1,10.12,10.12v9a0,0,0,0,1,0,0H177.4a0,0,0,0,1,0,0v-9A10.12,10.12,0,0,1,187.52,480.51Z"/><path class="cls-28" d="M505.89,488.87H482.16a3.38,3.38,0,0,0-3.38,3.38h0a3.38,3.38,0,0,0,3.38,3.38h23.73a3.38,3.38,0,0,0,3.38-3.38h0A3.38,3.38,0,0,0,505.89,488.87Z"/><path class="cls-29" d="M493.82,491.67h0a29.24,29.24,0,0,1-29.25-29.25v-5.24h58.49v5.24A29.24,29.24,0,0,1,493.82,491.67Z"/><path class="cls-30" d="M440.31,484.39H411.56a4.09,4.09,0,0,0-4.09,4.1h0a4.09,4.09,0,0,0,4.09,4.09h28.75a4.1,4.1,0,0,0,4.1-4.09h0A4.1,4.1,0,0,0,440.31,484.39Z"/><path class="cls-31" d="M425.69,487.78h0a35.44,35.44,0,0,1-35.44-35.43V446h70.87v6.35A35.43,35.43,0,0,1,425.69,487.78Z"/><path class="cls-32" d="M585.35,225.29c-2.53,2.36-5.28,4.53-8,6.69l-19.4,15.29c-4.63,3.66-9.48,7.41-15.88,8.47-7.17,1.17-14.89-.06-21.74,2h0c-1.48-4.06,3.49-6.44,7-8,4.16-1.84,8.81-3,12.5-5.49,5.72-3.84,8.52-10.29,11.83-16.16a84.65,84.65,0,0,1,9.66-13.73c2.69-3.12,5.08-6.76,8.87-8.87,4.34-2.4,8.61-.54,13.41,3,3.25,2.4,5.93,5.94,6,9.34C589.55,220.94,587.49,223.3,585.35,225.29Z"/><path class="cls-33" d="M585.35,225.29c-2.53,2.36-5.28,4.53-8,6.69l-19.4,15.29c-4.63,3.66-9.48,7.41-15.88,8.47-7.17,1.17-14.89-.06-21.74,2a29.16,29.16,0,0,1,14.39-4.82c8.32-.4,10.71.84,22.38-9.76S591.57,220,583.5,208.49c3.25,2.4,5.93,5.94,6,9.34C589.55,220.94,587.49,223.3,585.35,225.29Z"/><path class="cls-34" d="M583.69,204.77a3.59,3.59,0,0,1,3.33.28,2.45,2.45,0,0,1,.92,1.78,3.72,3.72,0,0,1-.38,1.73,11.83,11.83,0,0,1-1.83,3,.82.82,0,0,1-.49.34,1.29,1.29,0,0,1-.76-.21c-1.41-.71-4.9-2.89-5-4.54S582.47,205.14,583.69,204.77Z"/><path class="cls-34" d="M596,198.68c-5.11,1.16-9.17,5.29-12.17,8.86-.5.6.76,1.49,1.26.9a32.32,32.32,0,0,1,5.57-5.26c1.87-1.37,4.12-2.31,5.93-3.71C597,199.18,596.49,198.57,596,198.68Z"/><path class="cls-35" d="M532.29,153.87l46.65-27.41,27.52,46.84-46.65,27.41Z"/><path class="cls-36" d="M591.38,173.93l-9.94,10.14-13.69,3.74-20.14-28.05,29.08-17.08Z"/><path class="cls-37" d="M563.37,153.37l16.39,27.89h0l8-8.21-12.67-26.61-11.79,6.93Z"/><path d="M552.83,151l-1-1.71,3-1.74-1.25-2.13-4.67,2.74,3.26,5.54,4.66-2.74-1-1.71Zm6.47-6.09,1.86-1.1-1.25-2.13-4.66,2.74,1.17,2c1,.26,1.5.36,2.93.74l-1.85,1.09,1,1.7,4.66-2.74-1-1.7-2.86-.61Zm6.36-3.74,1.86-1.09-1.25-2.13-4.66,2.74,1.17,2,2.93.74-1.85,1.09,1,1.7,4.66-2.74-1-1.7-2.86-.61Z"/><path class="cls-2" d="M567.86,161l-6.38,8.5,2.34,3.33,6.11-8.31,6.5-8.84-1.74-3.79L567.86,161Z"/><path class="cls-38" d="M561.46,169.48l2.34,3.34,6.11-8.32L567.84,161Z"/><path class="cls-39" d="M574.67,151.87,567.84,161l2.07,3.52,6.5-8.84Z"/><path class="cls-40" d="M561.45,169.39l2.28,3.24,12.92-7.53,2.65,5.22-3.71,3.88-4.93,1.43-2.1-3-3.43,2,3.81,5.37,8.85-2.19,6.21-6.6-5.62-11.81Z"/><path class="cls-41" d="M569.87,164.44l-8.22,4.83,2.27,3.25,8-4.65-2-3.43Zm5.54,9.43,0,0-4.56,1.33-1.94-2.76-3.69,2.17L569,180l8.75-2.17Z"/><path class="cls-42" d="M556.87,162.34l17.38-10.21,1.66,3.61-16.62,9.76-2.42-3.16Z"/><path class="cls-41" d="M565.62,157.2l-8.77,5.15,2.42,3.16,8.35-4.9-2-3.41Z"/><path class="cls-43" d="M571.33,117.49,550,91.24l27.36-18.48,16.37,29.62-9.11,10.67Z"/><path class="cls-44" d="M582.92,110.9l7.36-8.62L576.29,77l-11.18,7.55Z"/><path class="cls-45" d="M572.13,94.93l-4.65,3.14-2.76-3.38,5-3.36-2.16-3.2L558.91,94l.7.87,7.25,8.91,7.71-5.2Zm6.06,9,0,0-4.51,1.54-2.09-2.56-3.44,2.32,4.12,5.05,8.33-2.79h0Z"/><path d="M547.81,82.22l1.6-1.09,1.08,1.61,1.6-1.09L551,80.05l1.6-1.08,3.25,4.81-1.6,1.08-1.08-1.6-1.61,1.08,1.36,2-1.6,1.08ZM556.1,79,554.5,80l-1.08-1.6,4.8-3.24,1.08,1.6-1.6,1.08,2.43,3.6-1.6,1.08L556.1,79Zm2.92-4.3,1.86-1.26,2.38,1.06-.1-2.6L565,70.59l3.52,5.21-2,1.35-1.92-2.83.19,2.83,0,0-2.56-1.23,1.91,2.83-1.6,1.08L559,74.65Zm6.53-5,1.6-1.08,2.44,3.6,2.4-1.62,1.35,2-4,2.71Z"/><path class="cls-2" d="M572.13,94.93l2.44,3.6,4.43-3,2.74,4.95-3.29,3.8L581,108l6-7-.36-.64L581.07,90.3l-.56-1-1,.65Zm-4.59-6.8,2.43,3.6,8.7-5.88L578.2,85l-1.07-1.93-.57-1Z"/><path class="cls-46" d="M90.54,136.52h38.73v38.73H90.54Z"/><path d="M100.36,168.91l3.12-1.78c.6,1,1.15,1.86,2.46,1.86s2-.46,2-2.28V154.4h3.83v12.37c0,3.75-2.32,5.45-5.72,5.45a6,6,0,0,1-5.74-3.31m13.31-.31,3-1.71a4,4,0,0,0,3.57,2.2c1.5,0,2.46-.75,2.46-1.78,0-1.24-1-1.68-2.64-2.41l-.91-.39c-2.61-1.11-4.34-2.51-4.34-5.46,0-2.71,2.07-4.78,5.3-4.78a5.35,5.35,0,0,1,5.15,2.9L122.39,159a2.46,2.46,0,0,0-2.33-1.56,1.58,1.58,0,0,0-1.73,1.56c0,1.08.67,1.52,2.22,2.2l.91.38c3.08,1.32,4.81,2.67,4.81,5.7,0,3.26-2.56,5-6,5a7,7,0,0,1-6.6-3.7"/></g></g></svg>