<svg width="782.705029296875px" height="131.62625732421873px" xmlns="http://www.w3.org/2000/svg" viewBox="-141.35251464843748 9.186871337890636 782.705029296875 131.62625732421873" style="background: rgba(0, 0, 0, 0);" preserveAspectRatio="xMidYMid"><defs><linearGradient id="editing-outline-gradient" x1="-0.41354545764260087" x2="1.4135454576426008" y1="0.09326335692419985" y2="0.9067366430758002"><stop offset="0" stop-color="#ee4208"></stop><stop offset="1" stop-color="#4139ff"></stop></linearGradient><filter id="editing-outline" x="-100%" y="-100%" width="300%" height="300%"><feMorphology in="SourceGraphic" operator="dilate" radius="2" result="outline"></feMorphology><feComposite operator="out" in="outline" in2="SourceAlpha"></feComposite></filter></defs><g filter="url(#editing-outline)"><g transform="translate(-30.094996452331543, 99.28656387329102)"><path d="M32.19-30.19L28.81-26.13L28.81-26.13Q27.88-27.25 26.22-28.22L26.22-28.22L26.22-28.22Q24.56-29.19 21.81-29.38L21.81-29.38L21.81-35.38L21.81-35.38Q25.25-35.19 27.72-33.91L27.72-33.91L27.72-33.91Q30.19-32.63 32.19-30.19L32.19-30.19ZM21.81 0.25L21.81-5.94L21.81-5.94Q24.06-6.19 25.66-7.03L25.66-7.03L25.66-7.03Q27.25-7.88 28.69-9L28.69-9L31.50-4.94L31.50-4.94Q29.56-2.50 27.31-1.22L27.31-1.22L27.31-1.22Q25.06 0.06 21.81 0.25L21.81 0.25ZM4.38-17.63L4.38-17.63L4.38-17.63Q4.38-21.19 5.41-24.31L5.41-24.31L5.41-24.31Q6.44-27.44 8.44-29.81L8.44-29.81L8.44-29.81Q10.44-32.19 13.16-33.66L13.16-33.66L13.16-33.66Q15.88-35.13 19.25-35.38L19.25-35.38L19.25-29.31L19.25-29.31Q16.13-28.63 14.25-25.47L14.25-25.47L14.25-25.47Q12.38-22.31 12.38-17.81L12.38-17.81L12.38-17.81Q12.38-15.50 12.84-13.47L12.84-13.47L12.84-13.47Q13.31-11.44 14.19-9.88L14.19-9.88L14.19-9.88Q15.06-8.31 16.34-7.25L16.34-7.25L16.34-7.25Q17.63-6.19 19.25-5.94L19.25-5.94L19.25 0.25L19.25 0.25Q15.81 0.06 13.06-1.41L13.06-1.41L13.06-1.41Q10.31-2.88 8.38-5.28L8.38-5.28L8.38-5.28Q6.44-7.69 5.41-10.88L5.41-10.88L5.41-10.88Q4.38-14.06 4.38-17.63ZM58.50-29.56L58.50-35.44L58.50-35.44Q61.94-35.25 64.75-33.78L64.75-33.78L64.75-33.78Q67.56-32.31 69.47-29.91L69.47-29.91L69.47-29.91Q71.38-27.50 72.44-24.31L72.44-24.31L72.44-24.31Q73.50-21.13 73.50-17.50L73.50-17.50L73.50-17.50Q73.50-13.88 72.41-10.72L72.41-10.72L72.41-10.72Q71.31-7.56 69.38-5.22L69.38-5.22L69.38-5.22Q67.44-2.88 64.63-1.44L64.63-1.44L64.63-1.44Q61.81 0 58.50 0.25L58.50 0.25L58.50-5.75L58.50-5.75Q61.63-6.44 63.59-9.69L63.59-9.69L63.59-9.69Q65.56-12.94 65.56-17.50L65.56-17.50L65.56-17.50Q65.56-19.81 65.09-21.84L65.09-21.84L65.09-21.84Q64.63-23.88 63.69-25.50L63.69-25.50L63.69-25.50Q62.75-27.13 61.44-28.19L61.44-28.19L61.44-28.19Q60.13-29.25 58.50-29.56L58.50-29.56ZM41.06-17.63L41.06-17.63L41.06-17.63Q41.06-21.25 42.13-24.38L42.13-24.38L42.13-24.38Q43.19-27.50 45.16-29.84L45.16-29.84L45.16-29.84Q47.13-32.19 49.88-33.63L49.88-33.63L49.88-33.63Q52.63-35.06 55.94-35.38L55.94-35.38L55.94-29.56L55.94-29.56Q52.81-28.88 50.94-25.63L50.94-25.63L50.94-25.63Q49.06-22.38 49.06-17.81L49.06-17.81L49.06-17.81Q49.06-15.50 49.53-13.44L49.53-13.44L49.53-13.44Q50-11.38 50.88-9.75L50.88-9.75L50.88-9.75Q51.75-8.13 53.03-7.06L53.03-7.06L53.03-7.06Q54.31-6 55.94-5.75L55.94-5.75L55.94 0.25L55.94 0.25Q52.50 0 49.75-1.47L49.75-1.47L49.75-1.47Q47-2.94 45.06-5.31L45.06-5.31L45.06-5.31Q43.13-7.69 42.09-10.88L42.09-10.88L42.09-10.88Q41.06-14.06 41.06-17.63ZM83.31-35.25L90.06-35.25L90.88-31.69L90.88 0L83.31 0L83.31-35.25ZM109.56-31.38L109.56-31.38L109.56-31.38Q110.63-30.31 111.22-28.91L111.22-28.91L111.22-28.91Q111.81-27.50 112.09-25.97L112.09-25.97L112.09-25.97Q112.38-24.44 112.44-22.88L112.44-22.88L112.44-22.88Q112.50-21.31 112.50-19.81L112.50-19.81L112.50-1.25L112.50 0L104.88 0L104.88-19.19L104.88-19.19Q104.88-21.31 104.69-23.25L104.69-23.25L104.69-23.25Q104.50-25.19 103.81-26.69L103.81-26.69L103.81-26.69Q103.13-28.19 101.94-29.03L101.94-29.03L101.94-29.03Q100.75-29.88 98.63-29.88L98.63-29.88L98.63-29.88Q97.75-29.88 96.28-29.59L96.28-29.59L96.28-29.59Q94.81-29.31 93.44-28.69L93.44-28.69L93.44-33.50L93.44-33.50Q95.13-34.38 97.09-35L97.09-35L97.09-35Q99.06-35.63 100.94-35.63L100.94-35.63L100.94-35.63Q103.75-35.63 105.69-34.47L105.69-34.47L105.69-34.47Q107.63-33.31 109.56-31.38ZM122.94-35.25L129.69-35.25L130.50-31.69L130.50 0L122.94 0L122.94-35.25ZM149.19-31.38L149.19-31.38L149.19-31.38Q150.25-30.31 150.84-28.91L150.84-28.91L150.84-28.91Q151.44-27.50 151.72-25.97L151.72-25.97L151.72-25.97Q152-24.44 152.06-22.88L152.06-22.88L152.06-22.88Q152.13-21.31 152.13-19.81L152.13-19.81L152.13-1.25L152.13 0L144.50 0L144.50-19.19L144.50-19.19Q144.50-21.31 144.31-23.25L144.31-23.25L144.31-23.25Q144.13-25.19 143.44-26.69L143.44-26.69L143.44-26.69Q142.75-28.19 141.56-29.03L141.56-29.03L141.56-29.03Q140.38-29.88 138.25-29.88L138.25-29.88L138.25-29.88Q137.38-29.88 135.91-29.59L135.91-29.59L135.91-29.59Q134.44-29.31 133.06-28.69L133.06-28.69L133.06-33.50L133.06-33.50Q134.75-34.38 136.72-35L136.72-35L136.72-35Q138.69-35.63 140.56-35.63L140.56-35.63L140.56-35.63Q143.38-35.63 145.31-34.47L145.31-34.47L145.31-34.47Q147.25-33.31 149.19-31.38ZM178.94-29.69L178.94-35.56L178.94-35.56Q182.31-35.25 185.03-33.75L185.03-33.75L185.03-33.75Q187.75-32.25 189.69-29.88L189.69-29.88L189.69-29.88Q191.63-27.50 192.66-24.44L192.66-24.44L192.66-24.44Q193.69-21.38 193.69-18.06L193.69-18.06L193.69-18.06Q193.69-16.56 193.50-15.06L193.50-15.06L172.06-15.06L172.06-20.56L186.50-20.56L186.50-20.56Q186.50-22.19 185.97-23.69L185.97-23.69L185.97-23.69Q185.44-25.19 184.41-26.47L184.41-26.47L184.41-26.47Q183.38-27.75 182-28.63L182-28.63L182-28.63Q180.63-29.50 178.94-29.69L178.94-29.69ZM178.69-5.88L178.69-5.88L178.69-5.88Q179.38-5.88 180.41-6.03L180.41-6.03L180.41-6.03Q181.44-6.19 182.59-6.59L182.59-6.59L182.59-6.59Q183.75-7 184.91-7.63L184.91-7.63L184.91-7.63Q186.06-8.25 186.94-9.13L186.94-9.13L189.69-4.94L189.69-4.94Q187.63-2.38 184.88-1.06L184.88-1.06L184.88-1.06Q182.13 0.25 177.88 0.25L177.88 0.25L177.88 0.25Q174.44 0.25 171.44-1.16L171.44-1.16L171.44-1.16Q168.44-2.56 166.31-5L166.31-5L166.31-5Q164.19-7.44 162.94-10.69L162.94-10.69L162.94-10.69Q161.69-13.94 161.69-17.69L161.69-17.69L161.69-17.69Q161.69-21.25 162.84-24.44L162.84-24.44L162.84-24.44Q164-27.63 166-30.03L166-30.03L166-30.03Q168-32.44 170.66-33.94L170.66-33.94L170.66-33.94Q173.31-35.44 176.38-35.63L176.38-35.63L176.38-29.63L176.38-29.63Q174.06-29.19 172.56-27.75L172.56-27.75L172.56-27.75Q171.06-26.31 170.22-24.47L170.22-24.47L170.22-24.47Q169.38-22.63 169.03-20.69L169.03-20.69L169.03-20.69Q168.69-18.75 168.69-17.38L168.69-17.38L168.69-17.38Q168.69-14.94 169.28-12.84L169.28-12.84L169.28-12.84Q169.88-10.75 171.13-9.22L171.13-9.22L171.13-9.22Q172.38-7.69 174.22-6.78L174.22-6.78L174.22-6.78Q176.06-5.88 178.69-5.88ZM230.88-30.19L227.50-26.13L227.50-26.13Q226.56-27.25 224.91-28.22L224.91-28.22L224.91-28.22Q223.25-29.19 220.50-29.38L220.50-29.38L220.50-35.38L220.50-35.38Q223.94-35.19 226.41-33.91L226.41-33.91L226.41-33.91Q228.88-32.63 230.88-30.19L230.88-30.19ZM220.50 0.25L220.50-5.94L220.50-5.94Q222.75-6.19 224.34-7.03L224.34-7.03L224.34-7.03Q225.94-7.88 227.38-9L227.38-9L230.19-4.94L230.19-4.94Q228.25-2.50 226-1.22L226-1.22L226-1.22Q223.75 0.06 220.50 0.25L220.50 0.25ZM203.06-17.63L203.06-17.63L203.06-17.63Q203.06-21.19 204.09-24.31L204.09-24.31L204.09-24.31Q205.13-27.44 207.13-29.81L207.13-29.81L207.13-29.81Q209.13-32.19 211.84-33.66L211.84-33.66L211.84-33.66Q214.56-35.13 217.94-35.38L217.94-35.38L217.94-29.31L217.94-29.31Q214.81-28.63 212.94-25.47L212.94-25.47L212.94-25.47Q211.06-22.31 211.06-17.81L211.06-17.81L211.06-17.81Q211.06-15.50 211.53-13.47L211.53-13.47L211.53-13.47Q212-11.44 212.88-9.88L212.88-9.88L212.88-9.88Q213.75-8.31 215.03-7.25L215.03-7.25L215.03-7.25Q216.31-6.19 217.94-5.94L217.94-5.94L217.94 0.25L217.94 0.25Q214.50 0.06 211.75-1.41L211.75-1.41L211.75-1.41Q209-2.88 207.06-5.28L207.06-5.28L207.06-5.28Q205.13-7.69 204.09-10.88L204.09-10.88L204.09-10.88Q203.06-14.06 203.06-17.63ZM250.69-30.13L250.69-10.69L250.69-10.69Q250.69-8.56 251.25-7.38L251.25-7.38L251.25-7.38Q251.81-6.19 252.84-5.56L252.84-5.56L252.84-5.56Q253.88-4.94 255.16-4.78L255.16-4.78L255.16-4.78Q256.44-4.63 257.88-4.63L257.88-4.63L257.88 0L257.88 0Q257.06 0.13 256.25 0.19L256.25 0.19L256.25 0.19Q255.56 0.25 254.59 0.28L254.59 0.28L254.59 0.28Q253.63 0.31 252.69 0.31L252.69 0.31L252.69 0.31Q251.75 0.31 250.78 0.25L250.78 0.25L250.78 0.25Q249.81 0.19 249.13 0.06L249.13 0.06L249.13 0.06Q247-0.31 245.81-1.78L245.81-1.78L245.81-1.78Q244.63-3.25 244.03-5.03L244.03-5.03L244.03-5.03Q243.44-6.81 243.28-8.50L243.28-8.50L243.28-8.50Q243.13-10.19 243.13-11.13L243.13-11.13L243.13-30.13L238.50-30.13L238.50-35.25L243.13-35.25L243.13-45.25L250.69-45.25L250.69-35.25L256.31-35.25L256.31-30.13L250.69-30.13ZM293.94-30.13L293.94-10.69L293.94-10.69Q293.94-8.56 294.50-7.38L294.50-7.38L294.50-7.38Q295.06-6.19 296.09-5.56L296.09-5.56L296.09-5.56Q297.13-4.94 298.41-4.78L298.41-4.78L298.41-4.78Q299.69-4.63 301.13-4.63L301.13-4.63L301.13 0L301.13 0Q300.31 0.13 299.50 0.19L299.50 0.19L299.50 0.19Q298.81 0.25 297.84 0.28L297.84 0.28L297.84 0.28Q296.88 0.31 295.94 0.31L295.94 0.31L295.94 0.31Q295 0.31 294.03 0.25L294.03 0.25L294.03 0.25Q293.06 0.19 292.38 0.06L292.38 0.06L292.38 0.06Q290.25-0.31 289.06-1.78L289.06-1.78L289.06-1.78Q287.88-3.25 287.28-5.03L287.28-5.03L287.28-5.03Q286.69-6.81 286.53-8.50L286.53-8.50L286.53-8.50Q286.38-10.19 286.38-11.13L286.38-11.13L286.38-30.13L281.75-30.13L281.75-35.25L286.38-35.25L286.38-45.25L293.94-45.25L293.94-35.25L299.56-35.25L299.56-30.13L293.94-30.13ZM310 0L310-48.56L317.56-48.56L317.56 0L310 0ZM336.25-31.38L336.25-31.38L336.25-31.38Q337.31-30.31 337.91-28.91L337.91-28.91L337.91-28.91Q338.50-27.50 338.78-25.97L338.78-25.97L338.78-25.97Q339.06-24.44 339.13-22.88L339.13-22.88L339.13-22.88Q339.19-21.31 339.19-19.81L339.19-19.81L339.19-1.25L339.19 0L331.56 0L331.56-19.19L331.56-19.19Q331.56-21.31 331.38-23.25L331.38-23.25L331.38-23.25Q331.19-25.19 330.50-26.69L330.50-26.69L330.50-26.69Q329.81-28.19 328.63-29.03L328.63-29.03L328.63-29.03Q327.44-29.88 325.31-29.88L325.31-29.88L325.31-29.88Q324.44-29.88 322.97-29.59L322.97-29.59L322.97-29.59Q321.50-29.31 320.13-28.69L320.13-28.69L320.13-33.50L320.13-33.50Q321.81-34.38 323.78-35L323.78-35L323.78-35Q325.75-35.63 327.63-35.63L327.63-35.63L327.63-35.63Q330.44-35.63 332.38-34.47L332.38-34.47L332.38-34.47Q334.31-33.31 336.25-31.38ZM364.44-29.69L364.44-35.56L364.44-35.56Q367.81-35.25 370.53-33.75L370.53-33.75L370.53-33.75Q373.25-32.25 375.19-29.88L375.19-29.88L375.19-29.88Q377.13-27.50 378.16-24.44L378.16-24.44L378.16-24.44Q379.19-21.38 379.19-18.06L379.19-18.06L379.19-18.06Q379.19-16.56 379-15.06L379-15.06L357.56-15.06L357.56-20.56L372-20.56L372-20.56Q372-22.19 371.47-23.69L371.47-23.69L371.47-23.69Q370.94-25.19 369.91-26.47L369.91-26.47L369.91-26.47Q368.88-27.75 367.50-28.63L367.50-28.63L367.50-28.63Q366.13-29.50 364.44-29.69L364.44-29.69ZM364.19-5.88L364.19-5.88L364.19-5.88Q364.88-5.88 365.91-6.03L365.91-6.03L365.91-6.03Q366.94-6.19 368.09-6.59L368.09-6.59L368.09-6.59Q369.25-7 370.41-7.63L370.41-7.63L370.41-7.63Q371.56-8.25 372.44-9.13L372.44-9.13L375.19-4.94L375.19-4.94Q373.13-2.38 370.38-1.06L370.38-1.06L370.38-1.06Q367.63 0.25 363.38 0.25L363.38 0.25L363.38 0.25Q359.94 0.25 356.94-1.16L356.94-1.16L356.94-1.16Q353.94-2.56 351.81-5L351.81-5L351.81-5Q349.69-7.44 348.44-10.69L348.44-10.69L348.44-10.69Q347.19-13.94 347.19-17.69L347.19-17.69L347.19-17.69Q347.19-21.25 348.34-24.44L348.34-24.44L348.34-24.44Q349.50-27.63 351.50-30.03L351.50-30.03L351.50-30.03Q353.50-32.44 356.16-33.94L356.16-33.94L356.16-33.94Q358.81-35.44 361.88-35.63L361.88-35.63L361.88-29.63L361.88-29.63Q359.56-29.19 358.06-27.75L358.06-27.75L358.06-27.75Q356.56-26.31 355.72-24.47L355.72-24.47L355.72-24.47Q354.88-22.63 354.53-20.69L354.53-20.69L354.53-20.69Q354.19-18.75 354.19-17.38L354.19-17.38L354.19-17.38Q354.19-14.94 354.78-12.84L354.78-12.84L354.78-12.84Q355.38-10.75 356.63-9.22L356.63-9.22L356.63-9.22Q357.88-7.69 359.72-6.78L359.72-6.78L359.72-6.78Q361.56-5.88 364.19-5.88ZM433.50-30.19L430.13-26.13L430.13-26.13Q429.19-27.25 427.53-28.22L427.53-28.22L427.53-28.22Q425.88-29.19 423.13-29.38L423.13-29.38L423.13-35.38L423.13-35.38Q426.56-35.19 429.03-33.91L429.03-33.91L429.03-33.91Q431.50-32.63 433.50-30.19L433.50-30.19ZM423.13 0.25L423.13-5.94L423.13-5.94Q425.38-6.19 426.97-7.03L426.97-7.03L426.97-7.03Q428.56-7.88 430-9L430-9L432.81-4.94L432.81-4.94Q430.88-2.50 428.63-1.22L428.63-1.22L428.63-1.22Q426.38 0.06 423.13 0.25L423.13 0.25ZM405.69-17.63L405.69-17.63L405.69-17.63Q405.69-21.19 406.72-24.31L406.72-24.31L406.72-24.31Q407.75-27.44 409.75-29.81L409.75-29.81L409.75-29.81Q411.75-32.19 414.47-33.66L414.47-33.66L414.47-33.66Q417.19-35.13 420.56-35.38L420.56-35.38L420.56-29.31L420.56-29.31Q417.44-28.63 415.56-25.47L415.56-25.47L415.56-25.47Q413.69-22.31 413.69-17.81L413.69-17.81L413.69-17.81Q413.69-15.50 414.16-13.47L414.16-13.47L414.16-13.47Q414.63-11.44 415.50-9.88L415.50-9.88L415.50-9.88Q416.38-8.31 417.66-7.25L417.66-7.25L417.66-7.25Q418.94-6.19 420.56-5.94L420.56-5.94L420.56 0.25L420.56 0.25Q417.13 0.06 414.38-1.41L414.38-1.41L414.38-1.41Q411.63-2.88 409.69-5.28L409.69-5.28L409.69-5.28Q407.75-7.69 406.72-10.88L406.72-10.88L406.72-10.88Q405.69-14.06 405.69-17.63ZM459.81-29.56L459.81-35.44L459.81-35.44Q463.25-35.25 466.06-33.78L466.06-33.78L466.06-33.78Q468.88-32.31 470.78-29.91L470.78-29.91L470.78-29.91Q472.69-27.50 473.75-24.31L473.75-24.31L473.75-24.31Q474.81-21.13 474.81-17.50L474.81-17.50L474.81-17.50Q474.81-13.88 473.72-10.72L473.72-10.72L473.72-10.72Q472.63-7.56 470.69-5.22L470.69-5.22L470.69-5.22Q468.75-2.88 465.94-1.44L465.94-1.44L465.94-1.44Q463.13 0 459.81 0.25L459.81 0.25L459.81-5.75L459.81-5.75Q462.94-6.44 464.91-9.69L464.91-9.69L464.91-9.69Q466.88-12.94 466.88-17.50L466.88-17.50L466.88-17.50Q466.88-19.81 466.41-21.84L466.41-21.84L466.41-21.84Q465.94-23.88 465-25.50L465-25.50L465-25.50Q464.06-27.13 462.75-28.19L462.75-28.19L462.75-28.19Q461.44-29.25 459.81-29.56L459.81-29.56ZM442.38-17.63L442.38-17.63L442.38-17.63Q442.38-21.25 443.44-24.38L443.44-24.38L443.44-24.38Q444.50-27.50 446.47-29.84L446.47-29.84L446.47-29.84Q448.44-32.19 451.19-33.63L451.19-33.63L451.19-33.63Q453.94-35.06 457.25-35.38L457.25-35.38L457.25-29.56L457.25-29.56Q454.13-28.88 452.25-25.63L452.25-25.63L452.25-25.63Q450.38-22.38 450.38-17.81L450.38-17.81L450.38-17.81Q450.38-15.50 450.84-13.44L450.84-13.44L450.84-13.44Q451.31-11.38 452.19-9.75L452.19-9.75L452.19-9.75Q453.06-8.13 454.34-7.06L454.34-7.06L454.34-7.06Q455.63-6 457.25-5.75L457.25-5.75L457.25 0.25L457.25 0.25Q453.81 0 451.06-1.47L451.06-1.47L451.06-1.47Q448.31-2.94 446.38-5.31L446.38-5.31L446.38-5.31Q444.44-7.69 443.41-10.88L443.41-10.88L443.41-10.88Q442.38-14.06 442.38-17.63ZM506.38-48.56L514-48.56L514 0L506.81 0L506.38-4.19L506.38-48.56ZM482.38-18.13L482.38-18.13L482.38-18.13Q482.38-23 483.72-26.31L483.72-26.31L483.72-26.31Q485.06-29.63 487.19-31.69L487.19-31.69L487.19-31.69Q489.31-33.75 491.91-34.66L491.91-34.66L491.91-34.66Q494.50-35.56 497-35.56L497-35.56L497-35.56Q498.94-35.56 500.69-35.13L500.69-35.13L500.69-35.13Q502.44-34.69 503.81-33.88L503.81-33.88L503.81-27.25L503.81-27.25Q502.75-28.38 501.44-29.06L501.44-29.06L501.44-29.06Q500.13-29.75 498.50-29.75L498.50-29.75L498.50-29.75Q496.56-29.75 495.06-28.78L495.06-28.78L495.06-28.78Q493.56-27.81 492.53-26.13L492.53-26.13L492.53-26.13Q491.50-24.44 490.94-22.25L490.94-22.25L490.94-22.25Q490.38-20.06 490.38-17.56L490.38-17.56L490.38-17.56Q490.38-15.06 491-12.91L491-12.91L491-12.91Q491.63-10.75 492.69-9.13L492.69-9.13L492.69-9.13Q493.75-7.50 495.28-6.56L495.28-6.56L495.28-6.56Q496.81-5.63 498.63-5.63L498.63-5.63L498.63-5.63Q501.69-5.63 503.81-8.06L503.81-8.06L503.81-1.56L503.81-1.56Q502.31-0.75 500.34-0.22L500.34-0.22L500.34-0.22Q498.38 0.31 496.19 0.31L496.19 0.31L496.19 0.31Q493.69 0.31 491.28-0.59L491.28-0.59L491.28-0.59Q488.88-1.50 487-3.56L487-3.56L487-3.56Q484.63-6.25 483.50-10.22L483.50-10.22L483.50-10.22Q482.38-14.19 482.38-18.13ZM541.06-29.69L541.06-35.56L541.06-35.56Q544.44-35.25 547.16-33.75L547.16-33.75L547.16-33.75Q549.88-32.25 551.81-29.88L551.81-29.88L551.81-29.88Q553.75-27.50 554.78-24.44L554.78-24.44L554.78-24.44Q555.81-21.38 555.81-18.06L555.81-18.06L555.81-18.06Q555.81-16.56 555.63-15.06L555.63-15.06L534.19-15.06L534.19-20.56L548.63-20.56L548.63-20.56Q548.63-22.19 548.09-23.69L548.09-23.69L548.09-23.69Q547.56-25.19 546.53-26.47L546.53-26.47L546.53-26.47Q545.50-27.75 544.13-28.63L544.13-28.63L544.13-28.63Q542.75-29.50 541.06-29.69L541.06-29.69ZM540.81-5.88L540.81-5.88L540.81-5.88Q541.50-5.88 542.53-6.03L542.53-6.03L542.53-6.03Q543.56-6.19 544.72-6.59L544.72-6.59L544.72-6.59Q545.88-7 547.03-7.63L547.03-7.63L547.03-7.63Q548.19-8.25 549.06-9.13L549.06-9.13L551.81-4.94L551.81-4.94Q549.75-2.38 547-1.06L547-1.06L547-1.06Q544.25 0.25 540 0.25L540 0.25L540 0.25Q536.56 0.25 533.56-1.16L533.56-1.16L533.56-1.16Q530.56-2.56 528.44-5L528.44-5L528.44-5Q526.31-7.44 525.06-10.69L525.06-10.69L525.06-10.69Q523.81-13.94 523.81-17.69L523.81-17.69L523.81-17.69Q523.81-21.25 524.97-24.44L524.97-24.44L524.97-24.44Q526.13-27.63 528.13-30.03L528.13-30.03L528.13-30.03Q530.13-32.44 532.78-33.94L532.78-33.94L532.78-33.94Q535.44-35.44 538.50-35.63L538.50-35.63L538.50-29.63L538.50-29.63Q536.19-29.19 534.69-27.75L534.69-27.75L534.69-27.75Q533.19-26.31 532.34-24.47L532.34-24.47L532.34-24.47Q531.50-22.63 531.16-20.69L531.16-20.69L531.16-20.69Q530.81-18.75 530.81-17.38L530.81-17.38L530.81-17.38Q530.81-14.94 531.41-12.84L531.41-12.84L531.41-12.84Q532-10.75 533.25-9.22L533.25-9.22L533.25-9.22Q534.50-7.69 536.34-6.78L536.34-6.78L536.34-6.78Q538.19-5.88 540.81-5.88Z" fill="url(#editing-outline-gradient)"></path></g></g><style>text {
  font-size: 64px;
  font-family: Arial Black;
  dominant-baseline: central;
  text-anchor: middle;
}</style></svg>