<svg xmlns="http://www.w3.org/2000/svg" viewBox="0 0 387.79 424.67"><title>putih-kodekoki3Asset 16</title><g id="Layer_2" data-name="Layer 2"><g id="Layer_9" data-name="Layer 9"><path d="M85.12,297.38a85,85,0,0,1-85-85L0,85.1A85,85,0,0,1,149.67,29.77l108.85,127.3a85,85,0,0,1-64.63,140.31Z" style="fill:#fff"/><path d="M85,424.67A85.06,85.06,0,0,1,0,339.58l.08-127.3a85,85,0,0,1,85-85H193.89a85,85,0,0,1,64.63,140.3L149.67,394.9A85,85,0,0,1,85,424.67Z" style="fill:#fff"/><path d="M193.91,297.38a85,85,0,0,1-64.65-29.78L20.41,140.31A85,85,0,0,1,85,0H193.89a85,85,0,0,1,85,85v127.3a85.05,85.05,0,0,1-85,85Z" style="fill:#fff"/><path d="M193.88,297.38a85.07,85.07,0,0,1-85-85V85a85,85,0,0,1,85-85H302.75a85,85,0,0,1,64.63,140.31L258.52,267.6A85,85,0,0,1,193.88,297.38Z" style="fill:#fff"/><path d="M85,424.67A85,85,0,0,1,20.41,284.36L129.26,157.07a85,85,0,0,1,149.67,55.27V339.63a85,85,0,0,1-85,85Z" style="fill:#fff"/><path d="M193.89,424.67a85,85,0,0,1-85-85V212.34a85,85,0,0,1,149.67-55.27L367.38,284.36a85,85,0,0,1-64.63,140.31Z" style="fill:#fff"/></g></g></svg>