<svg xmlns="http://www.w3.org/2000/svg" xmlns:xlink="http://www.w3.org/1999/xlink" viewBox="0 0 467.65 467.94"><defs><radialGradient id="radial-gradient" cx="223.05" cy="233.97" r="228.58" gradientUnits="userSpaceOnUse"><stop offset="0" stop-color="#3a72b9"/><stop offset="1" stop-color="#282e71"/></radialGradient><radialGradient id="radial-gradient-2" cx="412.16" cy="233.97" r="78.12" xlink:href="#radial-gradient"/></defs><title>1Asset 3</title><g id="Layer_2" data-name="Layer 2"><g id="Layer_1-2" data-name="Layer 1"><path d="M430.61,0H15.47A15.46,15.46,0,0,0,0,15.47v437a15.46,15.46,0,0,0,15.47,15.46H430.61a15.47,15.47,0,0,0,10.93-26.4L244.91,244.91a15.46,15.46,0,0,1,0-21.87L441.54,26.4A15.47,15.47,0,0,0,430.61,0Z" style="fill:url(#radial-gradient)"/><path d="M441.25,143l-80,80a15.46,15.46,0,0,0,0,21.87l80,80A15.47,15.47,0,0,0,467.65,314V153.93A15.47,15.47,0,0,0,441.25,143Z" style="fill:url(#radial-gradient-2)"/></g></g></svg>