<svg xmlns="http://www.w3.org/2000/svg" viewBox="0 0 595.09 595.28"><title>putih-kodekoki3Asset 11</title><g id="Layer_2" data-name="Layer 2"><g id="Layer_1-2" data-name="Layer 1"><path d="M447.22,0H61.32A61.33,61.33,0,0,0,0,61.32V534a61.33,61.33,0,0,0,61.32,61.33h385.9c54.64,0,82-66.06,43.37-104.69L341,341a61.33,61.33,0,0,1,0-86.73L490.59,104.69C529.22,66.06,501.86,0,447.22,0Z" style="fill:#fff"/><path d="M561.32,181.9,459.49,283.73a19.68,19.68,0,0,0,0,27.82L561.32,413.37c12.39,12.4,33.58,3.62,33.58-13.91V195.81C594.9,178.29,573.71,169.51,561.32,181.9Z" style="fill:#fff"/></g><g id="Layer_4" data-name="Layer 4"><path d="M561.5,181.9,459.68,283.73a19.68,19.68,0,0,0,0,27.82L561.5,413.37c12.4,12.4,33.59,3.62,33.59-13.91V195.81C595.09,178.29,573.9,169.51,561.5,181.9Z" style="fill:#fff"/></g></g></svg>